<?xml version="1.0" encoding="iso-8859-1"?>
<!-- Generator: Adobe Illustrator 19.0.0, SVG Export Plug-In . SVG Version: 6.00 Build 0)  -->
<svg version="1.1" id="Layer_1" xmlns="http://www.w3.org/2000/svg" xmlns:xlink="http://www.w3.org/1999/xlink" x="0px" y="0px"
	 viewBox="0 0 508 508" style="enable-background:new 0 0 508 508;" xml:space="preserve">
<circle style="fill:#84DBFF;" cx="254" cy="254" r="254"/>
<rect x="264.267" y="254.105" transform="matrix(-0.7071 0.7071 -0.7071 -0.7071 670.3376 277.6464)" style="fill:#2B3B4E;" width="26.8" height="47.1"/>
<circle style="fill:#324A5E;" cx="188.8" cy="188.8" r="115.7"/>
<circle style="fill:#FFFFFF;" cx="188.8" cy="188.8" r="90.7"/>
<path style="fill:#FF7058;" d="M306.1,272.4l-33.7,33.7c-1.4,1.4-1.4,3.7,0,5.2l111.1,111.1c1.4,1.4,3.7,1.4,5.2,0l33.7-33.7
	c1.4-1.4,1.4-3.7,0-5.2L311.3,272.4C309.8,270.9,307.5,270.9,306.1,272.4z"/>
<g>
	
		<rect x="305.64" y="286.712" transform="matrix(0.7071 0.7071 -0.7071 0.7071 314.1905 -130.1002)" style="fill:#FFD05B;" width="17" height="54.999"/>
	
		<rect x="372.06" y="353.017" transform="matrix(0.7071 0.7071 -0.7071 0.7071 380.5297 -157.6457)" style="fill:#FFD05B;" width="17" height="54.999"/>
</g>
<g>
	<rect x="130" y="148.8" style="fill:#324A5E;" width="7.7" height="80"/>
	<rect x="239.9" y="148.8" style="fill:#324A5E;" width="7.7" height="80"/>
	<rect x="142.4" y="148.8" style="fill:#324A5E;" width="5.1" height="63.1"/>
	<rect x="150.6" y="148.8" style="fill:#324A5E;" width="5.1" height="63.1"/>
	<rect x="158.8" y="148.8" style="fill:#324A5E;" width="5.1" height="63.1"/>
	<rect x="168.4" y="148.8" style="fill:#324A5E;" width="8.2" height="63.1"/>
	<rect x="181.6" y="148.8" style="fill:#324A5E;" width="8.2" height="63.1"/>
	<rect x="194.9" y="148.8" style="fill:#324A5E;" width="8.2" height="63.1"/>
	<rect x="207" y="148.8" style="fill:#324A5E;" width="2.5" height="63.1"/>
	<rect x="211.1" y="148.8" style="fill:#324A5E;" width="2.5" height="63.1"/>
	<rect x="215.2" y="148.8" style="fill:#324A5E;" width="2.5" height="63.1"/>
	<rect x="219.9" y="148.8" style="fill:#324A5E;" width="4.1" height="63.1"/>
	<rect x="226.5" y="148.8" style="fill:#324A5E;" width="4.1" height="63.1"/>
	<rect x="233" y="148.8" style="fill:#324A5E;" width="4.1" height="63.1"/>
	<path style="fill:#324A5E;" d="M142.4,220.5v-1.9h6.1v1.6l-2.1,2.3c0.8,0.1,1.4,0.5,1.9,1c0.4,0.5,0.7,1.2,0.7,1.9
		c0,1.1-0.4,1.9-1.1,2.5c-0.7,0.6-1.6,0.9-2.7,0.9c-1.1,0-2.2-0.4-3.4-1.2l0.9-1.8c0.9,0.7,1.8,1,2.5,1c0.5,0,0.8-0.1,1.1-0.3
		s0.4-0.5,0.4-1c0-0.4-0.2-0.7-0.5-1c-0.3-0.2-0.8-0.4-1.4-0.4c-0.3,0-0.8,0.1-1.3,0.3v-1.7l1.9-2.3h-3V220.5z"/>
	<path style="fill:#324A5E;" d="M157.7,222.5c0.3-0.4,0.4-0.7,0.4-1s-0.1-0.6-0.3-0.8s-0.5-0.3-0.8-0.3c-0.6,0-1.2,0.5-1.8,1.4
		l-1.8-1.1c0.5-0.7,1-1.3,1.5-1.7c0.6-0.4,1.3-0.6,2.1-0.6c0.9,0,1.6,0.3,2.3,0.8c0.7,0.6,1,1.3,1,2.2c0,0.5-0.1,1-0.4,1.5
		c-0.3,0.5-0.7,1.1-1.5,1.8l-1.8,1.9h4v2h-7.1V227l2.9-3C157.1,223.4,157.5,222.9,157.7,222.5z"/>
	<path style="fill:#324A5E;" d="M164.7,218.6h4.1v10h-2.2v-8.1h-1.9L164.7,218.6L164.7,218.6z"/>
	<path style="fill:#324A5E;" d="M178,220.3c-0.6,0-1.1,0.2-1.4,0.6c-0.3,0.4-0.5,1-0.6,1.7c0.6-0.4,1.3-0.6,2-0.6
		c0.9,0,1.7,0.3,2.3,0.9c0.6,0.6,0.9,1.4,0.9,2.4s-0.3,1.8-1,2.4c-0.7,0.6-1.5,0.9-2.6,0.9c-0.7,0-1.3-0.1-1.8-0.4
		c-0.5-0.3-0.9-0.7-1.2-1.1c-0.6-0.9-0.9-2.1-0.9-3.6c0-0.9,0.1-1.7,0.3-2.4s0.5-1.2,0.9-1.6c0.8-0.8,1.7-1.2,2.8-1.2
		c0.5,0,0.9,0.1,1.3,0.2c0.4,0.1,0.8,0.3,1,0.4c0.2,0.1,0.5,0.3,0.8,0.5l-1.1,1.6c-0.1-0.1-0.1-0.1-0.3-0.2
		c-0.1-0.1-0.3-0.2-0.7-0.4C178.6,220.4,178.3,220.3,178,220.3z M177.7,223.9c-0.4,0-0.8,0.1-1.1,0.4c-0.3,0.3-0.5,0.6-0.5,1
		s0.1,0.8,0.4,1.1c0.3,0.3,0.6,0.5,1.1,0.5c0.4,0,0.8-0.1,1.1-0.4c0.3-0.3,0.4-0.6,0.4-1s-0.1-0.8-0.4-1.1S178.2,223.9,177.7,223.9z
		"/>
	<path style="fill:#324A5E;" d="M192.1,218.6v1.9h-4v1.7c0.3-0.1,0.6-0.1,1-0.1c1,0,1.8,0.3,2.5,0.9s1,1.4,1,2.4s-0.4,1.8-1.1,2.5
		c-0.7,0.6-1.6,1-2.7,1c-1.4,0-2.5-0.5-3.4-1.5l1.2-1.6c0.1,0.1,0.2,0.2,0.3,0.3s0.4,0.3,0.8,0.5c0.4,0.2,0.8,0.3,1.2,0.3
		s0.7-0.1,1-0.3s0.4-0.6,0.4-1c0-0.5-0.2-0.8-0.5-1s-0.7-0.4-1.2-0.4s-1.1,0.2-1.8,0.5l-0.9-1v-4.9h6.2V218.6z"/>
	<path style="fill:#324A5E;" d="M200.8,224.3v-1.8h2.2v1.8h1.1v1.9H203v2.4h-2.2v-2.4h-4v-1.7l3.6-5.9h2.4l-3.4,5.7H200.8z"/>
	<path style="fill:#324A5E;" d="M208.7,220.5v-1.9h6.1v1.6l-2.1,2.3c0.8,0.1,1.4,0.5,1.9,1c0.4,0.5,0.7,1.2,0.7,1.9
		c0,1.1-0.4,1.9-1.1,2.5c-0.7,0.6-1.6,0.9-2.7,0.9s-2.2-0.4-3.4-1.2l0.9-1.8c0.9,0.7,1.8,1,2.5,1c0.5,0,0.8-0.1,1.1-0.3
		s0.4-0.5,0.4-1c0-0.4-0.2-0.7-0.5-1c-0.3-0.2-0.8-0.4-1.4-0.4c-0.3,0-0.8,0.1-1.3,0.3v-1.7l1.9-2.3h-3V220.5z"/>
	<path style="fill:#324A5E;" d="M224,222.5c0.3-0.4,0.4-0.7,0.4-1s-0.1-0.6-0.3-0.8s-0.5-0.3-0.8-0.3c-0.6,0-1.2,0.5-1.8,1.4
		l-1.8-1.1c0.5-0.7,1-1.3,1.5-1.7c0.6-0.4,1.3-0.6,2.1-0.6s1.6,0.3,2.3,0.8c0.7,0.6,1,1.3,1,2.2c0,0.5-0.1,1-0.4,1.5
		c-0.3,0.5-0.7,1.1-1.5,1.8l-1.8,1.9h4v2h-7.1V227l2.9-3C223.3,223.4,223.8,222.9,224,222.5z"/>
	<path style="fill:#324A5E;" d="M231,218.6h4.1v10h-2.2v-8.1H231V218.6z"/>
</g>
<g>
</g>
<g>
</g>
<g>
</g>
<g>
</g>
<g>
</g>
<g>
</g>
<g>
</g>
<g>
</g>
<g>
</g>
<g>
</g>
<g>
</g>
<g>
</g>
<g>
</g>
<g>
</g>
<g>
</g>
</svg>
