<?xml version="1.0" encoding="iso-8859-1"?>
<!-- Generator: Adobe Illustrator 19.0.0, SVG Export Plug-In . SVG Version: 6.00 Build 0)  -->
<svg version="1.1" id="Layer_1" xmlns="http://www.w3.org/2000/svg" xmlns:xlink="http://www.w3.org/1999/xlink" x="0px" y="0px"
	 viewBox="0 0 496.2 496.2" style="enable-background:new 0 0 496.2 496.2;" xml:space="preserve">
<path style="fill:#4ABC96;" d="M0,248.1c0,137,111.1,248.1,248.1,248.1s248.1-111.1,248.1-248.1S385.1,0,248.1,0S0,111.1,0,248.1z"
	/>
<path style="fill:#686767;" d="M200.2,268.6c0-3.9,3.1-7,7-7h81.6c3.9,0,7,3.1,7,7v18c0,0-95.6,0.7-95.6,0V268.6z"/>
<path style="fill:#BCBBBB;" d="M261.5,250V0.4c-4.4-0.2-8.9-0.4-13.4-0.4c-4.4,0-8.8,0.1-13.1,0.3V250
	C235,257.4,261.5,257.4,261.5,250z"/>
<path style="fill:#686767;" d="M235,239.9c0-7.3,26.5-7.3,26.5,0v33.2c0,7.3-26.5,7.3-26.5,0V239.9z"/>
<g>
	<polygon style="fill:#C1BFBF;" points="224.6,405.7 192.1,427.3 198.1,373 231.9,354.7 230.3,376.4 	"/>
	<polygon style="fill:#C1BFBF;" points="286.6,427.3 272.1,423.5 277.4,379.5 311.1,361.2 	"/>
</g>
<path style="fill:#FFFFFF;" d="M295.8,286.5h-95.6c0,48.2-39.9,128.8-39.9,128.8c0,6.6,5.4,12,12,12h19.8
	c18.9-25.6,33.5-68.8,33.5-68.8c2,34.6-2.5,55.8-7.7,68.8h24.5c6-13.9,9.6-24.6,9.6-24.6c0.5,9.1,0.6,17.3,0.3,24.6h34.3
	c-2.1-12-3.1-27.5-1.9-47.5c0,0,8.3,24.5,20.4,47.5h18.6c6.6,0,12-5.4,12-12C335.6,415.4,295.8,335,295.8,286.5z"/>
<g>
</g>
<g>
</g>
<g>
</g>
<g>
</g>
<g>
</g>
<g>
</g>
<g>
</g>
<g>
</g>
<g>
</g>
<g>
</g>
<g>
</g>
<g>
</g>
<g>
</g>
<g>
</g>
<g>
</g>
</svg>
