<svg id="Layer_1" data-name="Layer 1" xmlns="http://www.w3.org/2000/svg" viewBox="0 0 350 350"><defs><style>.cls-1{fill:#00879e;}.cls-2{fill:#fff;}.cls-3{fill:#567a26;}.cls-4{fill:#a0a0a0;}</style></defs><title>Icons</title><circle class="cls-1" cx="175" cy="175" r="175"/><path class="cls-2" d="M83.23,133.08V264H207.4V188.63h46.07V264h13.4V133.08Zm105,108H99.43V188.65h88.81Z"/><rect class="cls-2" x="83.23" y="85.99" width="183.65" height="36.2"/><path class="cls-3" d="M84.29,122.19,54.7,147.36v15.85a9.85,9.85,0,0,0,9.86,9.86H79.2a9.86,9.86,0,0,0,9.87-9.86V147.36l22.69-25.17Z"/><path class="cls-4" d="M111.76,122.19,89.07,147.36v15.85a9.86,9.86,0,0,0,9.86,9.86h14.65a9.86,9.86,0,0,0,9.86-9.86V147.36l13.88-25.17Z"/><path class="cls-3" d="M137.25,122.19l-13.81,25.17v15.85a9.86,9.86,0,0,0,9.87,9.86H148a9.85,9.85,0,0,0,9.86-9.86V147.36l3.95-25.17Z"/><path class="cls-4" d="M188.24,122.19H161.76l-3.95,25.17v15.85a9.86,9.86,0,0,0,9.87,9.86h14.64a9.86,9.86,0,0,0,9.87-9.86V147.36Z"/><path class="cls-3" d="M215.71,122.19H188.24l3.95,25.17v15.85a9.85,9.85,0,0,0,9.86,9.86h14.64a9.86,9.86,0,0,0,9.87-9.86V147.36Z"/><path class="cls-4" d="M238.24,122.19H216l10.61,25.17v15.85a9.86,9.86,0,0,0,9.86,9.86h14.65a9.86,9.86,0,0,0,9.86-9.86V147.36Z"/><path class="cls-3" d="M265.71,122.19H238.44l22.49,25.17v15.85a9.86,9.86,0,0,0,9.87,9.86h14.64a9.85,9.85,0,0,0,9.86-9.86V147.36Z"/></svg>