<?xml version="1.0" encoding="iso-8859-1"?>
<!-- Generator: Adobe Illustrator 19.0.0, SVG Export Plug-In . SVG Version: 6.00 Build 0)  -->
<svg version="1.1" id="Layer_1" xmlns="http://www.w3.org/2000/svg" xmlns:xlink="http://www.w3.org/1999/xlink" x="0px" y="0px"
	 viewBox="0 0 504 504" style="enable-background:new 0 0 504 504;" xml:space="preserve">
<circle style="fill:#FD8469;" cx="252" cy="252" r="252"/>
<g>
	<path style="fill:#324A5E;" d="M363.2,157.5L363.2,157.5c0,3.4,2.8,6.2,6.2,6.2h2.8c3.4,0,6.2,2.8,6.2,6.2v32.5
		c0,3.4,2.8,6.2,6.2,6.2h18.5c3.4,0,6.2-2.8,6.2-6.2v-44.9c0-3.4-2.8-6.2-6.2-6.2h-33.8C366,151.3,363.2,154.1,363.2,157.5z"/>
	<path style="fill:#324A5E;" d="M140.2,157.5L140.2,157.5c0,3.4-2.8,6.2-6.2,6.2h-2.8c-3.4,0-6.2,2.8-6.2,6.2v32.5
		c0,3.4-2.8,6.2-6.2,6.2h-18.5c-3.4,0-6.2-2.8-6.2-6.2v-44.9c0-3.4,2.8-6.2,6.2-6.2H134C137.4,151.3,140.2,154.1,140.2,157.5z"/>
</g>
<path style="fill:#4CDBC4;" d="M351.4,109.3H152.6c-8.6,0-15.6,7-15.6,15.6v237c0,8.6,7,15.6,15.6,15.6h198.9
	c8.6,0,15.6-7,15.6-15.6v-237C367,116.3,360,109.3,351.4,109.3z"/>
<rect x="162.9" y="132.7" style="fill:#FFFFFF;" width="178.2" height="146"/>
<g>
	<circle style="fill:#FFD05B;" cx="324.8" cy="340.9" r="14.2"/>
	<circle style="fill:#FFD05B;" cx="177.1" cy="340.9" r="14.2"/>
</g>
<g>
	<path style="fill:#324A5E;" d="M304.6,377.5v27.8c0,3.1,2.5,5.6,5.6,5.6h22.5c3.1,0,5.6-2.5,5.6-5.6v-27.8H304.6z"/>
	<path style="fill:#324A5E;" d="M170.6,405.3c0,3.1,2.5,5.6,5.6,5.6h22.5c3.1,0,5.6-2.5,5.6-5.6v-27.8h-33.6v27.8H170.6z"/>
</g>
<rect x="229.2" y="153" style="fill:#CED5E0;" width="45.6" height="16.3"/>
<g>
	<rect x="224" y="313.6" style="fill:#324A5E;" width="55.9" height="11.8"/>
	<rect x="224" y="340.9" style="fill:#324A5E;" width="55.9" height="11.8"/>
</g>
<g>
</g>
<g>
</g>
<g>
</g>
<g>
</g>
<g>
</g>
<g>
</g>
<g>
</g>
<g>
</g>
<g>
</g>
<g>
</g>
<g>
</g>
<g>
</g>
<g>
</g>
<g>
</g>
<g>
</g>
</svg>
