<svg id="Layer_1" data-name="Layer 1" xmlns="http://www.w3.org/2000/svg" viewBox="0 0 350 350"><defs><style>.cls-1{fill:#00879e;}.cls-2{fill:#fff;}.cls-3{fill:none;stroke:#505050;stroke-linecap:round;stroke-miterlimit:10;stroke-width:4px;}.cls-4{fill:#d76d70;}</style></defs><title>Icons</title><circle class="cls-1" cx="175" cy="175" r="175"/><rect class="cls-2" x="89.83" y="61.27" width="174.21" height="223.89" rx="16.66" ry="16.66"/><line class="cls-3" x1="103.78" y1="156.06" x2="234.63" y2="156.06"/><line class="cls-3" x1="103.78" y1="173.99" x2="246.84" y2="173.99"/><line class="cls-3" x1="103.78" y1="191.92" x2="246.84" y2="191.92"/><line class="cls-3" x1="103.78" y1="209.85" x2="246.84" y2="209.85"/><line class="cls-3" x1="103.78" y1="227.78" x2="246.84" y2="227.78"/><line class="cls-3" x1="103.78" y1="245.71" x2="246.84" y2="245.71"/><line class="cls-3" x1="103.78" y1="263.64" x2="175.31" y2="263.64"/><path class="cls-4" d="M279.91,191.68l-59.17-59.16a3.86,3.86,0,0,0-5.39,0L214,133.83l-9.33-9.34a50.11,50.11,0,1,0-11.24,11.09l9.34,9.34-1.31,1.31a3.88,3.88,0,0,0,0,5.4l59.16,59.16a3.88,3.88,0,0,0,5.4,0l13.86-13.85A3.48,3.48,0,0,0,279.91,191.68Zm-89.29-74.8A111.68,111.68,0,0,0,178,109a19.48,19.48,0,0,1-8.16,5.86,15.73,15.73,0,0,1-10.6,0A18.73,18.73,0,0,1,151,109a111.3,111.3,0,0,0-12.57,7.8,33.68,33.68,0,1,1,52.15.07Z"/><path class="cls-4" d="M181.31,87.16a16.32,16.32,0,0,0-.06-6.92,15.79,15.79,0,0,0-4.28-7.5,18.82,18.82,0,0,0-3.75-3.09,16,16,0,0,0-3.82-2,14.09,14.09,0,0,0-3.62-.72,10.06,10.06,0,0,0-1.45-.07,14.5,14.5,0,0,0-7.5,2,13.29,13.29,0,0,0-4,3.35,7.55,7.55,0,0,0-3.16,2.37c-2.17,2.77-2.83,7-1.91,12.71a1,1,0,0,0-.2.26c-1.64,2.11-1,5.2-.39,7.31.39,1.31,1.12,3.88,2.7,5.39a17.25,17.25,0,0,0,10.4,11.65,12.71,12.71,0,0,0,8.49,0c5.66-2,9.21-7.17,10.4-11.71,1.58-1.52,2.3-4.08,2.7-5.4.59-2.11,1.25-5.2-.4-7.37A1,1,0,0,1,181.31,87.16ZM178.75,94c-.93,3.29-1.78,4.21-2.44,4.28-.59,4-3.62,9-8.62,10.66a9.69,9.69,0,0,1-6.32,0,14.19,14.19,0,0,1-8.62-10.66c-.66-.07-1.52-1-2.44-4.28-1.25-4.21-.13-5.07,1-5.07h.2v-.06c-.2-.66-1.19-4.54,2.17-6.85,2.7.66,6.78.73,12.31-1.64,10.59-4.55,11.58,8.55,11.58,8.55h.2C178.88,88.93,180,89.79,178.75,94Z"/></svg>