<svg id="Layer_1" data-name="Layer 1" xmlns="http://www.w3.org/2000/svg" viewBox="0 0 350 350"><defs><style>.cls-1{fill:#00879e;}.cls-2{fill:#ba6e0a;}.cls-3{fill:#505050;}</style></defs><title>Icons</title><circle class="cls-1" cx="175" cy="175" r="175"/><path class="cls-2" d="M297,221.23l-17.05-98.32H70.08L53,221.23a29.59,29.59,0,0,0,28.15,38.71H268.82A29.59,29.59,0,0,0,297,221.23Zm-180-55.5a11.35,11.35,0,1,1,11.34-11.35A11.35,11.35,0,0,1,117,165.73Zm117.38,0a11.35,11.35,0,1,1,11.35-11.35A11.35,11.35,0,0,1,234.34,165.73Z"/><path class="cls-3" d="M223.22,90.58c-12.52-18-29.41-27.84-47.58-27.84s-35.06,9.88-47.57,27.84c-11.95,17.14-18.52,39.79-18.52,63.79a7.4,7.4,0,1,0,14.79,0c0-42.37,23-76.83,51.3-76.83s51.3,34.46,51.3,76.83a7.4,7.4,0,0,0,14.8,0C241.74,130.37,235.16,107.72,223.22,90.58Z"/></svg>