<svg id="Layer_1" data-name="Layer 1" xmlns="http://www.w3.org/2000/svg" viewBox="0 0 350 350"><defs><style>.cls-1{fill:#00879e;}.cls-2{fill:#ab697d;}.cls-3,.cls-4{fill:none;stroke:#fff;stroke-miterlimit:10;}.cls-3{stroke-width:5px;}.cls-4{stroke-linecap:round;stroke-width:2.5px;stroke-dasharray:0 5;}.cls-5{fill:#fff;}</style></defs><title>Icons</title><circle class="cls-1" cx="175" cy="175" r="175"/><polygon class="cls-2" points="152.66 59.66 175.67 40.73 198.5 59.89 227 51.21 240.76 77.64 270.42 80.54 273.01 110.22 299.3 124.24 290.34 152.66 309.26 175.67 290.11 198.5 298.79 227 272.36 240.76 269.46 270.42 239.78 273.01 225.76 299.3 197.34 290.34 174.33 309.26 151.5 290.11 123 298.79 109.24 272.36 79.58 269.46 76.99 239.78 50.7 225.76 59.66 197.34 40.73 174.33 59.89 151.5 51.21 123 77.64 109.24 80.54 79.58 110.22 76.99 124.24 50.7 152.66 59.66"/><circle class="cls-3" cx="175" cy="175" r="105.26"/><circle class="cls-4" cx="175" cy="175" r="85.91" transform="translate(-72.49 175) rotate(-45)"/><path class="cls-5" d="M129.31,167.38a5.48,5.48,0,1,0-7.34,8.15c10.73,9.66,18.79,23.72,24.68,41.69a5.48,5.48,0,0,0,9.91,1.11c18.36-30.53,43.31-59.26,71.68-78.73a5.49,5.49,0,1,0-6.21-9C195.24,149,171.55,175,153.16,203.12,147.13,188.41,139.32,176.39,129.31,167.38Z"/></svg>