<?xml version="1.0" encoding="iso-8859-1"?>
<!-- Generator: Adobe Illustrator 19.0.0, SVG Export Plug-In . SVG Version: 6.00 Build 0)  -->
<svg version="1.1" id="Layer_1" xmlns="http://www.w3.org/2000/svg" xmlns:xlink="http://www.w3.org/1999/xlink" x="0px" y="0px"
	 viewBox="0 0 504 504" style="enable-background:new 0 0 504 504;" xml:space="preserve">
<circle style="fill:#90DFAA;" cx="252" cy="252" r="252"/>
<g>
	<path style="fill:#324A5E;" d="M374.1,290.1c-21.5,0-39,17.5-39,39s17.5,39,39,39s39-17.5,39-39
		C413.2,307.6,395.7,290.1,374.1,290.1z"/>
	<path style="fill:#324A5E;" d="M141,290.1c-21.5,0-39,17.5-39,39s17.5,39,39,39s39-17.5,39-39S162.5,290.1,141,290.1z"/>
</g>
<path style="fill:#FF7058;" d="M318.3,109.8h28.5c6.3,0,11.4-5.1,11.4-11.4S353.1,87,346.8,87h-89.3c-6.3,0-11.4,5.1-11.4,11.4
	s5.1,11.4,11.4,11.4h37.1L334,258.7l-31,30.9h-96.3c-9.5-26-36.9-45.3-66.4-45.3c-37.3,0-70,30.1-70,64.5c0,6.3,5.1,11.4,11.4,11.4
	s11.4-5.1,11.4-11.4c0-19.7,20.2-41.7,47.2-41.7c24.6,0,43.4,18.7,46.6,36c1,5.5,6,9.3,11.4,9.3c0.2,0,0.5,0.1,0.7,0.1h108.7
	c3,0,5.9-1.2,8.1-3.3l39-39c3-2.9,4.1-7.3,2.9-11.3L318.3,109.8z"/>
<g>
	<circle style="fill:#FFD05B;" cx="374.1" cy="329.2" r="18.7"/>
	<circle style="fill:#FFD05B;" cx="141" cy="329.2" r="18.7"/>
</g>
<g>
</g>
<g>
</g>
<g>
</g>
<g>
</g>
<g>
</g>
<g>
</g>
<g>
</g>
<g>
</g>
<g>
</g>
<g>
</g>
<g>
</g>
<g>
</g>
<g>
</g>
<g>
</g>
<g>
</g>
</svg>
